PathFileType	4	(X/Y/Z)	C:\Users\Basilio\Documents\Thesis Gigler\squatting_fais\c3dfiles\019\SLS_back_pre5\markers_experimental.trc
DataRate	CameraRate	NumFrames	NumMarkers	Units	OrigDataRate	OrigDataStartFrame	OrigNumFrames
200.000000	200.000000	4	59	mm	200.000000	259	2073
Frame#	Time	FHD			LBHD			RBHD			C7			T10			CLAV			LSHO			LUUPA			LMUPA			LDUPA			LLEP			LMEP			LRAD			LUL			LRFIN			RSHO			RUPA1			RMUPA			RDUPA			RLEP			RMEP			RRAD			RUL			RUFIN			LASI			RASI			USACR			LSACR			RSACR			LTHI1			LTHI2			LTHI3			LTHI4			LLFC			LTIB1			LTIB2			LTIB3			LTIB4			LLMAL			LMMAL			LHEE			LMT1			LMT2			LMT5			RTHI			RTHI2			RTHI3			RTHI4			RLFC			RTIB1			RTIB2			RTIB3			RTIB4			RLMAL			RMMAL			RHEE			RMT1			RMT2			RMT5			
		X1	Y1	Z1	X2	Y2	Z2	X3	Y3	Z3	X4	Y4	Z4	X5	Y5	Z5	X6	Y6	Z6	X7	Y7	Z7	X8	Y8	Z8	X9	Y9	Z9	X10	Y10	Z10	X11	Y11	Z11	X12	Y12	Z12	X13	Y13	Z13	X14	Y14	Z14	X15	Y15	Z15	X16	Y16	Z16	X17	Y17	Z17	X18	Y18	Z18	X19	Y19	Z19	X20	Y20	Z20	X21	Y21	Z21	X22	Y22	Z22	X23	Y23	Z23	X24	Y24	Z24	X25	Y25	Z25	X26	Y26	Z26	X27	Y27	Z27	X28	Y28	Z28	X29	Y29	Z29	X30	Y30	Z30	X31	Y31	Z31	X32	Y32	Z32	X33	Y33	Z33	X34	Y34	Z34	X35	Y35	Z35	X36	Y36	Z36	X37	Y37	Z37	X38	Y38	Z38	X39	Y39	Z39	X40	Y40	Z40	X41	Y41	Z41	X42	Y42	Z42	X43	Y43	Z43	X44	Y44	Z44	X45	Y45	Z45	X46	Y46	Z46	X47	Y47	Z47	X48	Y48	Z48	X49	Y49	Z49	X50	Y50	Z50	X51	Y51	Z51	X52	Y52	Z52	X53	Y53	Z53	X54	Y54	Z54	X55	Y55	Z55	X56	Y56	Z56	X57	Y57	Z57	X58	Y58	Z58	X59	Y59	Z59	

260	1.295	-183.6380004882813	1711.385009765625	-675.0485839843751	-312.9314270019532	1688.367797851563	-819.6120605468752	-317.6772155761719	1681.66357421875	-679.6706542968751	-355.0944213867188	1507.413330078125	-744.5091552734376	-401.0424194335939	1217.012817382813	-742.1400756835939	-225.5788116455079	1450.379150390625	-749.2425537109376	-277.8039550781251	1482.28076171875	-909.063171386719	-278.5022583007813	1307.478393554688	-970.2986450195315	-251.3070831298829	1277.717163085938	-942.2899169921877	-279.0416259765626	1241.289794921875	-981.5750732421877	-321.4987487792969	1166.185180664063	-991.011901855469	-348.6241455078126	1155.267578125	-937.8867797851565	-225.1675567626954	933.5242919921877	-994.1442871093752	-288.4808349609376	926.0386962890627	-1009.4189453125	-208.1793975830079	863.786315917969	-1018.666687011719	-270.6041564941407	1478.893676757813	-598.3553466796876	-306.6117553710938	1295.235961914063	-505.3021240234376	-268.0757446289063	1273.244750976563	-527.7475585937501	-297.0456237792969	1224.288818359375	-504.3878784179689	-288.6548461914063	1153.35107421875	-509.7203979492189	-335.1264343261719	1149.650756835938	-544.3168334960939	-181.7327117919922	932.3952636718752	-553.1445312500001	-228.5962371826172	912.1689453125002	-509.7418518066407	-154.7329711914063	855.827331542969	-533.3896484375001	-252.5547027587891	1012.289672851563	-872.6347656250002	-234.0033111572266	1001.932373046875	-665.2487792968751	-403.1201171875001	1085.28662109375	-750.4636230468751	-411.5557556152345	1053.78466796875	-779.4188232421877	-404.823944091797	1053.038452148438	-722.0691528320314	-263.0982055664063	759.7843017578126	-951.5668945312502	-210.0213928222657	695.3065185546876	-957.7331542968752	-165.0609130859375	709.0751342773439	-943.7414550781252	-220.7317199707032	635.6667480468751	-948.3082275390627	-214.6363983154297	549.2969970703126	-933.6364746093752	-268.1958618164063	419.8242492675782	-901.7581787109377	-341.0764465332032	436.8741455078126	-947.7959594726565	-318.9663391113282	406.2043762207032	-926.784606933594	-381.2126770019532	359.9189758300782	-886.853210449219	-528.7371215820314	333.0293884277344	-902.0344848632815	-500.0723266601564	325.0088195800782	-819.3157348632815	-595.9697265625001	352.2489624023438	-845.3872680664065	-464.0418090820314	176.5233306884766	-834.9460449218752	-471.3406372070314	177.1846008300782	-872.4888916015627	-523.1505126953126	189.5150146484375	-917.467712402344	-278.3851318359376	799.6235351562502	-601.5567626953126	-240.5136718750001	746.2377929687501	-614.7921142578126	-215.7731628417969	754.2430419921876	-638.7118530273439	-269.5668640136719	670.9574584960939	-616.5520629882814	-315.0585937500001	512.0131835937501	-654.5075073242189	-292.9115295410157	334.0391235351563	-729.6981201171876	-348.1339111328126	254.0807189941407	-677.1052246093751	-316.3899536132813	251.7016906738282	-711.8735351562501	-333.1835632324219	215.0360260009766	-754.3441772460939	-397.4432678222657	132.4082336425782	-714.2420654296876	-386.5751342773439	141.1771850585938	-786.5264892578127	-465.659393310547	112.0835876464844	-762.2285156250001	-267.8316650390626	55.32298278808595	-792.4792480468752	-262.9326171875001	60.70019912719728	-747.4724731445314	-301.8127746582032	50.82997894287111	-691.8737792968751	
261	1.3	-183.9563903808594	1711.527954101563	-674.9653930664064	-313.2941894531251	1688.39501953125	-819.5476684570315	-318.1264343261719	1681.936767578125	-679.4902954101564	-355.1988525390626	1507.371704101563	-744.5391235351564	-401.0989074707032	1217.0634765625	-741.8298950195314	-225.7086791992188	1450.438842773438	-749.1560668945314	-277.6974182128907	1482.187866210938	-908.9432373046877	-277.6097717285157	1307.415893554688	-970.1343383789065	-250.2756347656251	1277.609619140625	-941.9528808593752	-277.9911499023438	1241.135009765625	-981.4199218750002	-319.7324829101563	1165.760498046875	-990.9006347656252	-347.3128662109376	1154.906494140625	-937.9967041015627	-223.1173858642579	933.5863037109377	-993.879089355469	-286.3634948730469	925.8822021484377	-1008.962463378906	-205.7701110839844	864.1198730468752	-1018.482055664063	-271.0519409179688	1478.7607421875	-598.3721313476564	-304.1995239257813	1294.634033203125	-504.7172851562501	-267.5724182128907	1273.312866210938	-527.7783203125001	-296.3415222167969	1224.299682617188	-504.4014282226564	-287.6758728027344	1153.21923828125	-509.793670654297	-334.2323608398438	1149.38037109375	-544.3803100585939	-180.4739379882813	932.0166015625002	-553.7405395507814	-226.6591339111329	912.3502197265627	-509.8514099121095	-153.1210174560547	856.1291503906252	-533.7173461914064	-252.7847595214844	1012.288391113281	-872.5549316406252	-234.0015869140626	1001.935546875	-665.2479248046876	-403.2774047851564	1085.293090820313	-750.1304321289064	-411.4790649414064	1053.756591796875	-779.0952758789065	-404.8342590332032	1053.0361328125	-721.7128295898439	-263.1921997070313	759.7562255859376	-951.251403808594	-210.2004394531251	695.2840576171876	-957.3688964843752	-165.3939971923828	709.0865478515626	-943.268737792969	-220.939193725586	635.6775512695314	-947.9384765625002	-214.8479919433594	549.2962036132814	-933.1773071289065	-268.9879455566407	420.119110107422	-901.1079101562502	-341.9074401855469	437.6509399414064	-947.1629638671877	-319.9174499511719	406.8172302246095	-926.0484008789065	-382.3155822753907	361.0524902343751	-886.110290527344	-530.2104492187501	334.9493713378907	-901.397399902344	-501.4963684082032	326.9982604980469	-818.4072265625002	-596.9429321289064	355.0154418945313	-844.410827636719	-470.7664184570314	184.7887115478516	-831.8687133789065	-474.0989074707032	178.7191925048828	-871.4307250976565	-525.8566894531251	191.5680694580078	-916.2354125976565	-278.2646789550782	799.5782470703127	-601.5587158203126	-240.2973327636719	746.0810546875001	-613.1071166992189	-217.8878173828126	748.5419921875001	-631.5838012695314	-269.4000549316407	670.8361816406251	-616.6403808593751	-314.9727783203126	511.9575805664064	-654.5812988281251	-292.8417968750001	334.0080261230469	-729.8799438476564	-347.9992675781251	254.0989837646485	-677.3466796875001	-316.3465881347657	251.7523803710938	-712.0156860351564	-333.2386169433594	214.8606109619141	-754.8417358398439	-397.3664855957032	132.4091339111328	-714.3739013671876	-386.373260498047	141.0276184082032	-786.8133544921877	-465.5836791992189	111.8931427001953	-762.3657836914064	-267.8791503906251	55.25251388549806	-792.5793457031252	-262.8889465332032	60.69228363037111	-747.5275268554689	-301.7361145019532	50.89513015747072	-691.9580078125001	
262	1.305	-184.314437866211	1711.459350585938	-674.9119873046876	-313.6186828613282	1688.460571289063	-819.4549560546877	-318.4873352050782	1681.909301757813	-679.4334106445314	-355.4656982421876	1507.304321289063	-744.6059570312501	-401.0740661621095	1217.014526367188	-741.5048217773439	-225.8088989257813	1450.491943359375	-748.9899902343751	-277.6114501953126	1482.0830078125	-908.8462524414065	-276.7502136230469	1307.306396484375	-970.0330810546877	-249.4784240722657	1277.593017578125	-941.7426757812502	-277.0554199218751	1241.004516601563	-981.3787841796877	-318.7473449707032	1165.602661132813	-990.8651123046877	-346.1455993652344	1154.558959960938	-938.0325927734377	-220.9723510742188	933.6816406250002	-993.6226806640627	-284.1735534667969	925.705505371094	-1008.659423828125	-203.2796783447266	864.313659667969	-1018.302734375	-271.3490600585938	1478.540893554688	-598.3336791992189	-303.6694335937501	1294.495971679688	-504.7237243652345	-267.1614379882813	1273.252563476563	-527.8489379882814	-295.6773986816407	1224.09326171875	-504.3714294433595	-286.6526794433594	1153.225219726563	-509.8959350585939	-333.3268127441407	1149.128540039063	-544.3433837890626	-178.5528106689453	932.3114013671877	-553.8323974609376	-224.6981811523438	912.701110839844	-509.9474487304689	-147.4112701416016	852.3504638671877	-530.9378662109376	-253.0996093750001	1012.327575683594	-872.4207153320315	-233.8892974853516	1001.906433105469	-665.1683349609376	-403.3116760253907	1085.310180664063	-749.7927856445314	-411.7180175781251	1053.821655273438	-778.7627563476565	-404.8766174316407	1053.046752929688	-721.4587402343751	-265.2575683593751	760.3236694335939	-951.6146240234377	-210.3733825683594	695.2850952148439	-957.0018310546877	-165.5476531982422	709.0465087890626	-942.8254394531252	-221.2167205810547	635.6812133789064	-947.5777587890627	-215.1695098876954	549.4050292968751	-932.7263793945315	-270.1498413085938	420.6876220703126	-900.036315917969	-342.6981811523438	438.3663940429689	-946.5845947265627	-320.7107238769532	407.332977294922	-925.3609008789065	-383.4942626953126	362.2094116210938	-885.356872558594	-531.6927490234376	336.9678955078126	-900.551208496094	-503.0001831054689	328.9855346679688	-817.473815917969	-598.0210571289064	357.5450744628907	-843.5421142578127	-469.2663574218751	179.5845031738282	-832.4425048828127	-476.8374328613282	180.2026824951172	-870.3854980468752	-528.3867187500001	193.3533782958985	-915.1792602539065	-278.1421813964844	799.5021972656252	-601.5597534179689	-240.3378906250001	746.1987915039064	-615.1055908203126	-215.7726440429688	754.1871337890626	-638.9539794921876	-269.3549194335938	670.8406372070314	-616.7321166992189	-314.7796936035157	511.9909973144532	-654.6917724609376	-292.7622070312501	334.0432128906251	-730.1274414062501	-347.8910522460938	254.0697326660157	-677.4415893554689	-316.2384948730469	251.6620178222657	-712.2871704101564	-333.1674804687501	215.0671539306641	-754.7998657226564	-397.3347778320314	132.4059753417969	-714.5231933593751	-386.536834716797	141.1783599853516	-786.7355957031252	-465.5641174316407	112.0002136230469	-762.3615112304689	-267.7671508789063	55.23364257812501	-792.604431152344	-262.9350891113282	60.76107025146486	-747.6275024414064	-301.7315063476563	51.02053070068361	-692.0505371093751	
263	1.31	-184.6829528808594	1711.599487304688	-674.8877563476564	-313.6081542968751	1688.393188476563	-819.2973632812502	-318.9014892578126	1681.859985351563	-679.4617309570314	-355.6371459960938	1507.218383789063	-744.6103515625001	-401.1641235351564	1217.010986328125	-741.1829833984376	-225.9815368652344	1450.561645507813	-748.8440551757814	-277.4747924804688	1481.9677734375	-908.7112426757815	-275.9988403320313	1307.239624023438	-969.9918212890627	-248.8012695312501	1277.609008789063	-941.5908813476565	-275.9160461425782	1240.877075195313	-981.2254028320315	-317.1052856445313	1165.245849609375	-990.767761230469	-344.8836975097657	1154.19482421875	-938.1011962890627	-218.8605651855469	933.866149902344	-993.3547973632815	-281.7628173828126	925.4820556640627	-1008.346313476563	-200.7729797363282	864.728698730469	-1018.084045410156	-271.9411010742188	1478.490966796875	-598.3483886718751	-303.2816162109376	1294.459594726563	-504.6813964843751	-266.6727294921876	1273.323974609375	-527.9142456054689	-294.9894714355469	1224.239013671875	-504.4615478515626	-285.7898254394532	1152.886474609375	-509.9094238281251	-332.2887573242188	1148.987426757813	-544.3775634765626	-176.7251892089844	932.7219848632815	-554.1196899414064	-223.0939178466797	912.6196289062502	-510.244354248047	-148.7807769775391	856.8933715820315	-534.3369750976564	-253.4513092041016	1012.355102539063	-872.3872680664065	-234.0566864013672	1001.865356445313	-665.1583251953126	-403.7153625488282	1085.18994140625	-749.4858398437501	-412.1439208984376	1053.866577148438	-778.3978271484377	-404.8277282714845	1053.06884765625	-721.1700439453126	-265.0026245117188	760.3388671875001	-951.1423339843752	-210.4897003173829	695.1958007812501	-956.5338134765627	-165.8255920410157	709.0816650390626	-942.4100341796877	-221.4760742187501	635.6819458007814	-947.2383422851565	-215.5572662353516	549.5386962890626	-932.2829589843752	-270.7460021972657	420.8894958496095	-899.8264160156252	-343.7640991210938	439.1545410156251	-945.9700927734377	-321.6549987792969	408.0742797851564	-924.6871337890627	-384.7085571289064	363.2373046875001	-884.6380615234377	-532.8444824218751	338.6918029785157	-899.632263183594	-504.3374023437501	330.9126892089844	-816.6655883789065	-599.0366821289064	360.1168518066407	-842.8187255859377	-475.8820190429689	187.2512664794922	-829.8048095703127	-479.8382873535157	182.7624664306641	-868.450866699219	-530.8528442382814	195.1221160888672	-914.088562011719	-278.0209655761719	799.4519653320315	-601.5608520507814	-240.2041320800782	746.0690307617189	-614.8289794921876	-215.5497436523438	753.0402832031251	-638.3216552734376	-269.2295837402344	670.8126220703126	-616.8158569335939	-314.6676940917969	511.9598693847657	-654.7914428710939	-292.7137145996094	334.0401000976563	-730.3648681640626	-347.7151794433594	254.092269897461	-677.6221923828126	-316.1218261718751	251.7032470703126	-712.4758911132814	-333.0592956542969	215.2454223632813	-754.7683715820314	-397.3203735351564	132.4369506835938	-714.6241455078126	-384.4041748046876	140.0697479248047	-788.9983520507815	-465.2994384765626	111.6311340332032	-762.5363769531251	-267.8316040039063	55.13996887207033	-792.6674804687502	-262.9283447265626	60.7980308532715	-747.7199707031251	-301.7839660644532	51.12430953979494	-692.1326904296876	
